<svg xmlns="http://www.w3.org/2000/svg" viewBox="0 0 32 32"><g fill="#010101"><path d="M0 9.003v9.007l.094.004c.05.004.468.148.924.32 1.597.597 2.268.75 3.622.82l.523.026-.312.605c-.17.332-.358.68-.41.77l-.097.167-.08-.09c-.138-.148-.42-.265-.723-.308-.157-.02-.465-.11-.687-.195C1.577 19.63.38 18.87.05 18.356c-.034-.06-.046 1.463-.046 6.782L0 32h32V14.655l-.203.467c-.453 1.06-.874 1.452-1.69 1.565-.526.074-.936.18-1.186.308-.218.11-1.103.882-1.572 1.378-.628.66-.815.99-.99 1.744-.063.273-.134.503-.153.51-.023.013-.488-.077-1.034-.19l-.99-.21-.004-.33c0-.256-.02-.36-.086-.486-.207-.393-.52-.6-.945-.628-.25-.02-.327 0-.71.16-.05.024-.133-.066-.355-.374-.16-.223-.453-.625-.648-.898-.2-.273-.36-.503-.36-.51 0-.013.103-.095.228-.188.288-.22.788-.703.987-.956l.156-.203-.082-.133c-.093-.156-.097-.35-.003-.695.055-.207.152-.378.53-.917.71-1.022 1.113-1.533 1.437-1.842.503-.476.784-.573 1.647-.577.69 0 1.047.065 1.534.29.414.197.714.435 1 .798.354.452.58.577 1.662.92.866.278 1.608.566 1.732.683l.102.095V0H0v9.003zM17.436 2.75c3.048.388 5.72 1.683 7.856 3.806.355.355.8.835.987 1.073.79.994 1.53 2.243 1.993 3.387.226.56.38 1.006.35 1.034-.006.012-.07-.03-.13-.093-.177-.168-.232-.21-.275-.21-.02 0-.042-.016-.05-.036-.027-.077-.68-.366-1.02-.452-.393-.097-.682-.132-1.197-.144-.334-.008-.842.03-.904.07-.016.012-.078.032-.137.04-.06.01-.126.034-.153.058-.023.02-.05.027-.062.016-.043-.047-.523.296-.816.585-.286.277-1.09 1.292-1.09 1.374 0 .027-.226.382-.32.5-.136.175-.304.417-.304.44 0 .02-.03.066-.07.11-.188.202-.317.694-.31 1.158.01.285-.003.332-.077.41-.075.074-.098.082-.17.04-.04-.028-.077-.063-.077-.08 0-.01-.023-.05-.05-.077-.028-.027-.11-.14-.184-.246-.075-.11-.15-.203-.165-.207-.02-.007-.03-.035-.03-.058 0-.028-.044-.094-.098-.152-.055-.06-.098-.125-.098-.15s-.028-.05-.06-.06c-.03-.017-.058-.04-.058-.06 0-.035-.03-.082-.144-.21-.028-.028-.05-.067-.05-.086 0-.017-.064-.103-.138-.19-.078-.084-.148-.186-.16-.225-.01-.035-.04-.066-.058-.066-.02 0-.035-.03-.035-.06 0-.035-.028-.07-.06-.082-.03-.015-.057-.043-.057-.07 0-.023-.063-.113-.137-.195-.07-.086-.13-.164-.125-.18.008-.027-.296-.472-.382-.562-.032-.03-.06-.07-.06-.08 0-.036-.22-.332-.307-.41-.036-.032-.146-.172-.247-.312-.1-.14-.203-.274-.226-.3-.02-.028-.04-.06-.04-.07 0-.025-.042-.08-.144-.196-.027-.028-.05-.074-.05-.098 0-.023-.028-.05-.06-.062-.03-.016-.058-.04-.058-.06 0-.034-.03-.08-.144-.21-.026-.027-.05-.066-.05-.085 0-.016-.04-.075-.09-.13-.202-.222-.374-.5-.358-.57.01-.038.054-.198.097-.346.09-.292.104-.358.136-.5.04-.19.062-.284.078-.377.01-.055.03-.22.04-.367.014-.238.003-.293-.087-.465-.06-.104-.238-.31-.394-.455-.156-.145-.29-.29-.297-.316-.004-.032-.015-.075-.027-.095-.025-.035-.122-.312-.138-.382-.004-.016-.01-.035-.015-.047l-.02-.05c-.004-.017-.027-.083-.055-.145-.027-.066-.054-.144-.062-.175-.008-.03-.016-.062-.02-.07-.007-.004-.01-.02-.02-.04-.003-.015-.026-.08-.054-.144-.05-.12-.054-.13-.117-.39-.024-.085-.067-.22-.102-.303-.03-.078-.06-.152-.063-.164 0-.008-.054-.164-.12-.34-.067-.18-.188-.507-.266-.733-.29-.796-.39-1.073-.418-1.132-.012-.03-.028-.086-.036-.12-.007-.036-.05-.145-.093-.247-.043-.1-.078-.202-.078-.225 0-.06 1.4-.012 2.02.066zM15.55 4.727c.41 1.12.747 2.05.754 2.064.004.016-.082.004-.195-.03-.305-.087-1.226-.083-1.55.007-.293.078-.515.183-.706.335l-.137.11-1.15-1.858c-.633-1.018-1.156-1.877-1.164-1.9-.02-.078 1.26-.445 2.04-.586.36-.062 1.094-.164 1.27-.17.097-.005.124.06.838 2.028zm-4.615-.98c.027.063.066.117.082.117.02 0 .023.016.01.035-.01.016.013.063.056.102.043.04.078.086.078.11 0 .02.04.09.09.155.094.133.165.246.212.34.015.03.042.074.058.097.07.09.222.332.207.332-.012 0 .043.086.117.195.074.105.137.21.137.233 0 .02.016.04.036.04s.043.03.058.066c.02.07.102.206.14.245.044.043.122.18.16.28.024.063.06.11.08.11.018 0 .034.027.034.058s.015.06.035.06.043.03.06.065c.018.07.1.21.14.246.01.012.097.152.194.312.094.16.195.32.223.355.03.037.062.1.07.138.008.043.105.32.214.62s.207.574.215.605c.007.032.097.32.198.644.098.32.184.6.187.625.06.23.117.394.176.452.06.063.134.246.184.434.004.02.012.04.016.05.004.012.016.035.02.06.003.018.01.042.02.046.003.007.01.04.02.07.01.03.303.913.654 1.96.35 1.05.632 1.903.625 1.903-.01 0 .01.05.045.117.032.063.063.13.063.145 0 .018.062.233.14.48.078.245.15.46.153.475.004.02.012.04.016.05.004.012.012.032.016.047.004.02.058.188.12.383.063.19.118.363.122.378.004.02.007.035.015.04l.02.07c.007.03.038.132.073.222.03.094.05.168.04.168-.01 0 0 .035.022.082.024.043.05.11.06.144.007.034.038.14.073.23.03.093.05.167.04.167-.013 0-.01.024.01.047.016.027.032.063.036.078.004.02.012.04.016.05.003.013.01.032.015.048.004.02.04.136.082.265l.078.254c.004.01.04.124.078.252.043.13.074.242.078.254 0 .012.044.152.095.312s.097.32.1.35c.01.033.04.134.076.228.032.09.063.18.063.195.004.017.03.126.066.243.038.117.066.222.07.234.003.012.035.125.074.254.04.13.078.262.086.293.003.032.144.515.308 1.074l.312 1.092c.008.042.062.233.117.428.098.344.593 2.21.628 2.36.02.09.047.204.075.302.058.23.218.862.23.93.008.042.05.217.097.39.043.17.09.37.102.44.01.07.046.2.073.28l.05.153-.198.06c-1.21.346-2.205.49-3.516.51-1.145.015-1.25.004-1.305-.13-.03-.08-.386-1.56-.453-1.888-.007-.035-.066-.288-.132-.566-.067-.274-.13-.535-.137-.578-.125-.6-1.128-4.617-1.26-5.034-.055-.172-.106-.34-.11-.37-.007-.032-.015-.063-.015-.07-.004-.005-.004-.02-.008-.04 0-.016-.02-.05-.043-.078-.023-.024-.027-.047-.012-.047.016 0 .012-.024-.007-.05-.032-.036-.12-.262-.15-.38-.006-.03-.06-.163-.104-.273l-.074-.175c-.11-.266-.234-.535-.496-1.054-.16-.323-.312-.623-.335-.67-.025-.05-.056-.09-.072-.09-.02 0-.03-.015-.03-.04 0-.018-.08-.16-.176-.31-.098-.153-.176-.294-.176-.313 0-.024-.016-.04-.04-.04-.02 0-.038-.027-.038-.058 0-.032-.016-.06-.04-.06-.02 0-.038-.02-.038-.038 0-.024-.035-.078-.078-.125-.04-.043-.102-.14-.137-.21-.035-.075-.074-.134-.09-.134-.015 0-.062-.058-.105-.128-.04-.067-.094-.145-.113-.172-.074-.086-.12-.145-.22-.285-.05-.074-.112-.156-.135-.18-.106-.117-.176-.214-.176-.24 0-.017-.035-.056-.078-.087-.043-.03-.078-.07-.078-.09 0-.026-.035-.07-.26-.32-.052-.05-.09-.104-.09-.116s-.04-.066-.087-.117c-.05-.055-.14-.16-.207-.234-.062-.078-.168-.2-.234-.274-.062-.07-.18-.207-.254-.297-.074-.09-.18-.215-.234-.277-.054-.063-.148-.176-.214-.25-.063-.074-.18-.207-.254-.29-.074-.085-.187-.217-.254-.29-.25-.294-.37-.435-.468-.532-.055-.055-.098-.113-.098-.13 0-.015-.043-.065-.097-.116-.056-.05-.1-.105-.1-.125 0-.02-.034-.062-.077-.094s-.078-.075-.078-.098c0-.024-.03-.066-.066-.102-.04-.03-.107-.11-.15-.167-.074-.106-.17-.23-.253-.324-.02-.03-.04-.064-.04-.087 0-.02-.01-.043-.026-.05-.038-.016-.245-.29-.245-.325 0-.01-.035-.058-.078-.105-.043-.047-.102-.133-.125-.195-.028-.06-.063-.11-.078-.11-.02 0-.032-.027-.032-.058s-.015-.06-.04-.06c-.018 0-.038-.022-.038-.053s-.01-.063-.03-.07c-.048-.02-.332-.527-.57-1.015L4.6 8.745l.165-.246c.648-.96 1.72-2.127 2.63-2.857.547-.437 1.518-1.08 2.065-1.37.49-.26 1.31-.644 1.377-.644.024 0 .066.05.098.116zm5.182 3.57c.25.102.386.208.414.317.012.05.208.277.43.5.398.394.406.41.406.58 0 .22-.047.462-.207 1.03-.114.42-.126.442-.22.442-.09-.004-.12-.047-.257-.34-.29-.627-.476-.83-.765-.83-.18 0-.472.148-.714.363l-.195.167.323.535c.18.293.312.55.296.574-.04.062-.223.046-.36-.04-.07-.042-.25-.195-.402-.34l-.277-.264-.29-.976-.294-.976.066-.24c.067-.255.11-.314.328-.423.277-.14.472-.172 1.015-.16.402.008.57.027.702.082zM4.484 9.7c.293.554.332.624.367.647.02.012.028.032.024.04-.015.02.13.24.18.276.02.017.023.033.004.033-.02 0-.008.03.03.074.036.04.075.11.083.156.01.05.024.117.036.152s.03.117.043.183c.007.063.026.16.038.215.01.055.027.14.04.195s.026.14.038.195c.035.168.133.718.156.86.012.073.027.178.04.233.01.055.026.183.042.293.012.104.03.23.04.272.007.043.026.183.038.312.012.13.027.277.04.332.07.46.093 1.88.038 2.786-.023.433-.035.523-.1.863-.025.105-.048.23-.056.273-.023.125-.102.425-.13.488-.014.03-.026.066-.026.078-.004.01-.024.05-.047.093-.042.07-.09.07-.8.05-.417-.01-.8-.03-.854-.042-.054-.012-.175-.035-.273-.047-.097-.01-.183-.03-.195-.035-.012-.008-.094-.023-.187-.04-.18-.026-.42-.116-.452-.17-.012-.02-.062-.325-.11-.672-.1-.772-.124-2.434-.038-3.117.168-1.354.445-2.45.913-3.63.23-.577.808-1.724.858-1.708.02.007.122.17.224.363zm11.672.316c0 .07-.125.1-.18.046-.023-.027-.09-.132-.148-.23l-.1-.18.085-.038c.082-.035.1-.02.214.16.07.11.13.218.13.242zm.82.71c0 .015.054.09.117.164.066.074.13.168.14.203.012.04.04.07.06.07.018 0 .034.02.034.044s.047.1.11.172c.175.21.24.304.346.476.055.093.114.167.13.167.02 0 .042.03.054.066.012.04.074.132.14.207.067.074.13.17.14.214.032.086.7 1.015.816 1.132.082.08.34.424.465.623.043.063.11.15.148.192.04.043.078.11.094.148.01.04.04.07.058.07.02 0 .035.027.035.06 0 .034.028.07.06.08.03.012.065.055.077.09.012.04.05.102.09.145.125.14.28.363.28.402 0 .02.024.054.05.07.025.016.095.1.15.187.288.453.48.722.515.722.03 0-.106.105-.273.206-.028.016-.14-.105-.31-.332-.143-.2-.32-.42-.393-.495-.07-.075-.13-.15-.13-.17 0-.02-.023-.058-.046-.085-.028-.03-.078-.094-.11-.14-.03-.047-.097-.133-.148-.188-.047-.058-.098-.136-.11-.175-.01-.035-.038-.067-.058-.067-.02 0-.035-.02-.035-.04 0-.038-.023-.073-.14-.206-.02-.028-.05-.08-.067-.118-.01-.035-.043-.066-.066-.066-.02 0-.04-.02-.04-.04 0-.038-.03-.085-.143-.214-.028-.027-.05-.062-.05-.078 0-.023-.04-.074-.146-.195-.026-.028-.05-.075-.05-.098s-.027-.05-.058-.063c-.03-.016-.058-.048-.058-.08s-.016-.053-.04-.053c-.02 0-.038-.024-.038-.05 0-.068-.703-1.047-.886-1.234-.07-.075-.13-.156-.13-.188 0-.027-.026-.062-.058-.074-.03-.014-.058-.046-.058-.073 0-.027-.012-.06-.03-.066-.017-.007-.11-.124-.212-.265-.102-.14-.203-.273-.226-.3-.02-.027-.04-.06-.04-.07 0-.016-.023-.05-.046-.078-.117-.13-.15-.176-.15-.21 0-.025-.022-.056-.045-.07-.028-.017-.09-.107-.137-.197-.078-.144-.082-.163-.023-.175.097-.02.44.012.44.04zm-1.717.468c.108.027.447.04.486.016.082-.05.207-.047.227.008.03.078.527.764.628.87.13.13.18.2.18.242 0 .023.024.054.055.07.027.016.082.094.12.168.095.187.758 1.1.844 1.163.038.026.108.116.155.202.05.086.102.156.12.156.017 0 .032.02.032.043s.055.11.117.188c.16.19.168.2.254.343.043.072.09.13.105.13.016 0 .032.024.032.05 0 .032.043.095.097.145.055.05.098.117.098.145 0 .03.027.062.058.074.03.015.06.047.06.078 0 .03.01.055.03.055.016 0 .09.097.164.214.074.118.148.212.168.216.015 0 .027.023.027.054 0 .06.812 1.206.866 1.23.05.02-.433.257-.843.417-.46.18-1.29.383-1.904.465l-.172.023-.132-.42c-.074-.232-.137-.454-.14-.493-.005-.035-.01-.07-.016-.078-.004-.004-.012-.04-.02-.078-.008-.04-.027-.102-.043-.137-.015-.036-.03-.087-.035-.106-.05-.207-.113-.398-.144-.44-.024-.025-.028-.048-.012-.048s.008-.027-.02-.058c-.027-.032-.035-.06-.02-.06.016 0 .01-.022-.015-.05-.023-.03-.03-.066-.015-.078.01-.015.004-.027-.02-.027-.027 0-.047-.04-.047-.082 0-.085-.144-.608-.187-.678-.016-.024-.03-.066-.035-.102-.004-.035-.03-.113-.055-.175-.027-.063-.05-.125-.054-.145-.008-.015-.016-.035-.02-.046-.004-.012-.016-.04-.02-.06-.003-.022-.01-.042-.02-.05-.003-.004-.01-.04-.018-.078-.032-.156-.695-2.154-.742-2.228-.055-.094-.18-.46-.164-.496.004-.01-.015-.05-.047-.085-.027-.04-.04-.067-.023-.067.016 0 .008-.027-.02-.058-.027-.032-.035-.06-.02-.06.017 0 .01-.026-.02-.057-.026-.032-.034-.06-.018-.06.016 0 .008-.026-.02-.057-.027-.032-.035-.06-.023-.06.015 0 .007-.034-.017-.08-.043-.075-.04-.08.047-.032.05.027.117.058.148.066zm-9.223.878c.05.067.13.172.176.23.05.06.132.16.183.227.055.07.14.175.195.238.056.058.157.172.22.25.066.078.172.2.234.27.066.07.18.202.254.295.074.094.18.22.234.278.105.11.367.413.733.85.078.09.168.195.2.227.066.07.26.304.413.495.066.082.152.188.195.238.043.047.113.137.152.19.043.06.106.142.14.18.036.04.098.122.14.177.04.058.103.136.134.175.03.04.085.11.116.156.03.047.082.11.11.14.023.028.046.06.046.075 0 .013.09.134.195.27.11.137.195.27.195.293s.02.043.04.043c.023 0 .038.027.038.058s.02.06.04.06c.023 0 .038.026.038.057 0 .033.012.06.032.06.015 0 .062.066.105.144.043.082.086.156.098.168.01.012.04.055.062.098l.113.207c.074.12.074.136.008.448-.058.29-.468 1.632-.527 1.725-.016.02-.028.055-.032.078-.004.02-.055.16-.11.312-.132.352-.148.39-.136.39.004 0-.03.075-.078.165-.043.09-.082.183-.082.206 0 .025-.027.103-.058.18-.032.075-.055.138-.05.145.003.004-.02.05-.048.106-.03.055-.058.114-.062.137-.004.02-.06.16-.125.312-.122.288-.15.366-.16.43-.005.018-.036.077-.068.124-.03.05-.046.09-.03.09.01 0-.005.042-.04.097-.035.056-.054.098-.04.098.013 0 0 .04-.03.086-.03.05-.086.176-.125.285-.04.105-.09.21-.105.23-.02.023-.035.062-.035.09 0 .046-.075.222-.297.702-.05.11-.094.214-.094.226 0 .016-.023.082-.054.148-.032.07-.106.238-.16.38-.06.14-.12.268-.14.292-.02.02-.036.058-.036.085 0 .024-.05.156-.113.293-.062.137-.16.347-.215.472l-.1.23-.204-.163c-.878-.7-1.73-1.56-2.36-2.4-.47-.625-1.133-1.678-1.07-1.706.027-.012.214-.305.222-.344.008-.063.695-1.428.722-1.436.02-.008.027-.032.012-.05-.012-.02 0-.036.027-.036s.035-.012.024-.027c-.015-.012-.01-.043.008-.067.02-.023.12-.21.23-.413.106-.203.25-.473.313-.598.067-.122.11-.223.098-.223-.01 0-.004-.023.016-.05.047-.06.14-.317.246-.688.086-.293.1-.36.136-.57.012-.067.04-.21.06-.324.073-.418.096-.828.096-1.764 0-.816-.03-1.592-.078-1.83l-.04-.328c-.01-.145-.03-.297-.038-.332-.004-.035-.023-.156-.035-.26-.046-.33-.065-.462-.104-.684-.02-.117-.047-.27-.055-.332-.01-.066-.03-.14-.038-.168-.03-.09.04-.047.125.082zm23.138 5.596c-.176 1.487-.605 2.927-1.292 4.324-.386.788-.67 1.268-1.147 1.932-.278.386-.808 1.054-.843 1.054-.016 0-.004-.067.04-.274.03-.148.057-.28.077-.41.01-.066.04-.16.058-.214.04-.11.258-1.18.29-1.424.022-.184.05-.324.104-.566.055-.238.07-.312.098-.45.012-.065.04-.194.058-.292.024-.097.05-.218.06-.273.01-.055.07-.328.136-.605.066-.28.124-.542.132-.585.043-.18.25-.543.422-.726.035-.043.066-.086.066-.1 0-.03.964-.977 1.225-1.203.1-.086.21-.184.245-.215.067-.063.258-.196.28-.196.01 0 0 .1-.01.222zm-7.91.824l.706.983-.042.176c-.09.358.058.79.363 1.048l.165.14-.656 2.18c-.364 1.193-.81 2.672-.992 3.288l-.332 1.112-.312-.187c-.176-.104-.32-.194-.328-.202-.008-.008-.13-.46-.27-1.003-.514-2.025-1.42-5.194-2.1-7.375l-.053-.176.722-.144c.835-.168 1.38-.34 1.982-.63.238-.112.43-.205.433-.202 0 .004.324.45.714.992zm-9.733.952c.472 1.034.726 1.815 1.186 3.65.336 1.337.784 3.183.784 3.226 0 .008-.04.023-.085.03-.098.013-.36.368-1.237 1.675l-.543.804-.402-.144c-.222-.082-.59-.226-.815-.328l-.41-.18-.008-.292c-.02-.667-.226-1.897-.363-2.17-.098-.183-.177-.246-.333-.246-.28 0-.495.285-.866 1.132-.147.342-.237.506-.272.495-.04-.016-.035-.032.008-.078.03-.032.058-.075.058-.098s.094-.255.21-.516c1.05-2.338 2.25-5.358 2.705-6.802.08-.265.167-.48.19-.48s.11.144.192.32zm11.78.012c.247.117.33.43.18.67-.272.454-1.014.227-.963-.292.01-.094.05-.203.09-.25.16-.18.467-.234.693-.128zM3.74 20.687c.024.004.047.023.047.043 0 .02.02.023.04.01.023-.01.038-.002.038.017 0 .023.02.043.043.043.024 0 .106.066.188.148l.148.15-.207.42c-.113.234-.215.43-.226.44-.01.013-.064-.065-.118-.175-.106-.206-.453-1.053-.453-1.1 0-.024.346-.024.498.004zm21.25.343c.596.125 1.092.234 1.1.246.008.008-.02.172-.063.363-.04.194-.242 1.185-.448 2.204l-.375 1.854-.18.183c-.1.102-.195.184-.206.188-.012 0-.043-.18-.07-.394-.067-.542-.172-.862-.32-.987-.172-.145-.328-.133-.48.03-.215.223-.336.742-.426 1.808-.027.328-.058.6-.07.61-.172.147-1.034.662-1.503.896l-.273.138-.304-.188c-.164-.1-.31-.195-.32-.202-.012-.016 2.006-6.756 2.025-6.767.004 0 .105-.023.223-.046.117-.027.27-.082.33-.12.068-.044.154-.067.196-.06.043.008.566.12 1.163.246zm-.777 4.554c.016.078.052.375.083.707.02.188.01.208-.102.3-.128.11-.198.13-.17.052.007-.024.023-.172.04-.324.01-.152.026-.312.034-.35.008-.044.027-.17.043-.282.027-.21.05-.238.074-.102zM9.35 26.85c.012.116.032.225.043.24.028.05.047.172.07.504l.024.316-.226-.13c-.206-.116-.522-.303-.55-.326-.027-.024.172-.54.336-.87l.183-.364.046.207c.027.113.06.305.074.422zm4.3.065c-.003.02.012.117.04.226.027.107.054.232.062.275.008.043.043.183.074.312.036.13.07.277.078.33.012.056.04.17.06.255.05.19.077.324.124.605.035.242.074.36.13.394.018.017.03.044.022.064-.027.07-1.893-.28-1.998-.38-.016-.015.117-.253.3-.53.188-.273.336-.523.336-.55 0-.027.02-.05.04-.05.023 0 .038-.028.038-.06s.016-.058.04-.058c.02 0 .066-.062.1-.136.036-.074.08-.137.098-.137.02 0 .035-.027.035-.058s.015-.06.03-.06c.02 0 .067-.06.11-.136.04-.075.086-.137.1-.137.02 0 .032-.02.032-.043 0-.027.032-.07.07-.098.08-.062.09-.066.08-.027zm6.65 1.054c.08.046.262.147.402.225.14.074.28.16.313.19.062.064.03.083-.46.263-.333.12-.32.125-.36-.14-.035-.243-.047-.313-.054-.313-.003 0-.015-.047-.023-.105-.008-.063-.027-.15-.04-.192-.03-.09-.038-.093.223.07z"/><path d="M25.737 12.898c-.15.046-.27.1-.27.12.004.02.223.79.48 1.706.262.917.465 1.69.45 1.713-.04.062-.996.012-1.558-.086-.852-.143-1.45-.358-1.75-.62-.163-.144-.167-.144-.475.126-.184.16-.18.17.203.444.6.43 1.752.718 3.08.78.518.024.56.02.732-.062.21-.1.316-.234.38-.48.046-.17.034-.23-.45-1.927-.273-.963-.51-1.763-.523-1.775-.016-.012-.148.016-.3.063zM28.164 13.272c-.207.152-.38.29-.38.305 0 .12.575.304.665.214.057-.057.003-.21-.07-.182-.056.02-.06.01-.017-.03.023-.03.047-.095.047-.154 0-.066.043-.125.136-.187.117-.082.125-.1.086-.168-.023-.04-.054-.075-.07-.075-.012 0-.19.125-.398.277z"/></g></svg>