<?xml version="1.0" encoding="iso-8859-1"?>
<!-- Generator: Adobe Illustrator 18.0.0, SVG Export Plug-In . SVG Version: 6.00 Build 0)  -->
<!DOCTYPE svg PUBLIC "-//W3C//DTD SVG 1.1//EN" "http://www.w3.org/Graphics/SVG/1.1/DTD/svg11.dtd">
<svg version="1.1" id="Camada_1" xmlns="http://www.w3.org/2000/svg" xmlns:xlink="http://www.w3.org/1999/xlink" x="0px" y="0px"
	 viewBox="0 0 32 32" style="enable-background:new 0 0 32 32;" xml:space="preserve">
<path style="fill-rule:evenodd;clip-rule:evenodd;fill:#191717;" d="M15.999,1C7.716,1,1,7.716,1,16.001
	c0,6.627,4.298,12.249,10.259,14.233c0.75,0.138,1.024-0.326,1.024-0.723c0-0.356-0.013-1.299-0.02-2.551
	c-4.172,0.906-5.053-2.011-5.053-2.011c-0.682-1.733-1.665-2.194-1.665-2.194c-1.362-0.931,0.103-0.912,0.103-0.912
	c1.505,0.106,2.298,1.546,2.298,1.546c1.338,2.292,3.511,1.63,4.365,1.246c0.136-0.969,0.524-1.63,0.952-2.005
	c-3.331-0.379-6.833-1.665-6.833-7.413c0-1.638,0.584-2.977,1.544-4.025c-0.154-0.379-0.669-1.905,0.147-3.97
	c0,0,1.259-0.403,4.125,1.538c1.196-0.333,2.48-0.499,3.755-0.505c1.274,0.006,2.557,0.172,3.755,0.505
	c2.864-1.941,4.121-1.538,4.121-1.538c0.818,2.065,0.304,3.59,0.149,3.97c0.961,1.049,1.542,2.388,1.542,4.025
	c0,5.762-3.507,7.03-6.849,7.402c0.539,0.463,1.018,1.379,1.018,2.778c0,2.005-0.018,3.623-0.018,4.115
	c0,0.401,0.27,0.868,1.031,0.721C26.706,28.244,31,22.626,31,16.001C31,7.716,24.283,1,15.999,1z"/>
</svg>
